<svg width="160" height="291" fill="none" xmlns="http://www.w3.org/2000/svg"><path fill-rule="evenodd" clip-rule="evenodd" d="m107.82 65.379 27.156 41.964 17.872 43.978 7.15 43.001-.436 19.872-2.039 19.214-5.335 16.597-7.813 16.583-10.049 12.092-12.262 12.321-36.508-26.658-30.575-32.124-25.748-37.817-18.082-39.39-10.26-41.987L.87 72.211 4.666 54.04l5.326-18.812 9.629-16.791 10.564-14.52L33.559.628l39.637 28.338L107.82 65.38ZM30.112 7.245l-8.785 12.282-9.32 16.212 27.021 99.638L30.112 7.245Zm127.586 199.622.225-10.318-.601.483.376 9.835Zm.204-12.913-1.65-11.805.928 12.403.722-.598Zm-3.532-23.779-3.183-16.738-1.158.952 4.341 15.786Zm-3.71-18.923-7.293-19.253-.018.011 6.073 20.26 1.238-1.018Zm-8.055-21.154-8.859-20.49-1.01 1.065 9.836 19.445.033-.02Zm-9.816-22.421-12.225-19.166-.276.27 11.451 20.013 1.05-1.117Zm-13.343-20.9-12.613-19.216-.81.796 13.162 18.674.261-.254ZM105.598 65.94 89.746 48.706l-.523.458 15.537 17.6.838-.824Zm-17.25-18.701L72.504 31.143l-.94.93 16.248 15.636.536-.47ZM70.962 29.824 52.708 16.4l-.175.228 17.499 14.117.93-.921Zm-19.903-14.6L33.775 3.237 32.65 4.331l18.294 11.04.114-.148ZM35.317 180.042l8.942 5.172-5.121-41.86-33.443-61.78 29.621 98.468Zm11.071 5.845 23.852-5.158 32.252-108.387-61.436 70.785 5.332 42.76Zm27.101-6.122 74.355-26.544-6.634-21.279-9.729-19.834-57.992 67.657Zm74.908-24.601L76.59 180.8l78.906 14.292-1.852-19.829-5.247-20.098Zm-76.699 27.317-24.553 5.309 18.538 29.362 83.767 15.305-77.752-49.976Zm-26.905 5.375-8.237-4.764 19.44 46.396 7.853-11.449-19.056-30.183Zm110.835 9.306L75.776 182.7l77.721 49.957 2.384-17.716-.253-17.778Zm-82.066-20.604 56.91-66.406-12.153-21.161-13.14-18.567-31.617 106.134Zm-40.242 4.38-17.275-20.114 13.926 30.33 3.348-10.216ZM13.047 154.23l17.172 19.993-25.027-52.131 7.855 32.138ZM2.914 112.658l26.821 55.869L2.889 79.284l.025 33.374Zm31.663 70.956-3.33 10.158 19.72 28.958-16.39-39.116Zm48.147 74.819L64.89 220.102l-7.813 11.39 25.646 26.941Zm-12.672-38.432 71.443 44.786 7.154-15.054 4.348-14.577-82.945-15.155Zm70.425 46.533L69.52 222.051l52.525 66.104 10.713-10.757 7.72-10.864h-.001Zm-70.897-41.16 17.475 37.564 29.465 21.511-46.94-59.075Zm-28.97-88.693L68.95 32.467 50.5 17.58 32.085 6.32l8.525 130.36ZM10.865 39.272 6.637 54.521 2.93 72.207l33.801 62.447-25.866-95.382Zm31.27 99.528 61.332-70.664-16.03-18.704L70.644 33.97 42.135 138.801v-.001Z" fill="#0CF"/></svg>