<svg width="151" height="259" fill="none" xmlns="http://www.w3.org/2000/svg"><path fill-rule="evenodd" clip-rule="evenodd" d="M138.53 119.376 150.924 2.503 146.031.227l-32.018 24.116-11.593 10.946-25.951 39.062-27.08 45.618-22.516 41.467-18.102 38.83-4.396 18.711L.63 255.435l4.935 3.1 94.561-71.147 30.219-28.183 8.184-39.83.001.001Zm-19.364-50.574.372.181-8.27 17.123-1.756-.867 9.654-16.437Zm1.299-1.621-.393-.195 6.703-16.009 1.823 1.075-8.132 15.129h-.001ZM97.878 45.792l-9.12 21.277-25.803 48.261-29.551 49.083-17.63 25.62 12.906-27.7 22.49-41.383L78.2 75.432l19.678-29.64ZM10.736 200.923l17.671-25.636-18.452 40.402.781-14.766Zm26.937-39.647 22.97-38.167-7.931 27.183-15.038 10.984Zm30.846-52.052 20.14-37.673.12 15.471-20.26 22.202Zm25.998-50.462 9.526-22.203 13.312-10.705-22.838 32.908Zm50.162-54.879-1.118 6.2-5.139 9.699-13.4-.092 19.657-15.807Zm-7.035 17.909-4.071 12.545-8.159 14.327-32.7 16.245 29.994-43.219 14.936.102ZM124.189 51.53l-6.336 15.523-10.194 17.485-16.86 1.754-.143-18.103 33.533-16.659Zm-17.664 35.154-8.115 16.594-7.093-15.011 15.208-1.583Zm-9.264 18.9-9.716 16.194 2.909-30.602 6.807 14.408Zm-13.527 23.011-8.753 16.836-17.367 3.606 26.12-20.442Zm-10.323 19.223-10.654 15.991-7.547-12.211 18.201-3.78Zm-11.847 17.918-8.553 15.109 1.418-26.653 7.135 11.544Zm-10.799 19.156-9.004 12.814 10.319-37.503-1.315 24.689Zm-13.737 20.082-8.223 13.85-10.289 12.563-8.446-10.3 26.958-16.113Zm-19.744 28.101-7.277 12.261-6.646 6.533 5.865-28.621 8.057 9.827ZM3.322 254.742l7.624-7.495.549.349-6.244 8.357-1.929-1.211Zm8.86-9.104 6.665-11.227 2.085 1.376-8.195 10.204-.555-.353Zm7.827-12.882 9.928-12.123.58.33-8.406 13.18-2.102-1.387Zm11.06-13.806 8.72-15.175 2.088 1.302-10.223 14.207-.586-.334Zm9.813-16.869L51.99 186.66l.597.435-9.599 16.298-2.105-1.312Zm12.192-17.133 10-18.158 1.705.928-11.128 17.653-.577-.423Zm11.06-19.879 11.796-17.352.067.044-10.179 18.224-1.684-.916Zm12.834-19.091 9.662-19.222 2.25 1.151-11.843 18.117-.069-.046Zm10.627-20.951 10.843-18.196.943.549-9.499 18.775-2.287-1.128Zm11.807-19.97 9.15-18.04 1.768.872-9.979 17.715-.939-.547Zm28.249-55.91 7.268-13.076.631.304-6.084 13.844-1.815-1.071Zm8.087-14.923 3.889-11.98 2.074 1.084-5.32 11.206-.643-.31Zm4.666-13.853 4.536-8.564.391.216-2.896 9.41-2.031-1.062Zm5.246-10.478 1.271-7.028 1.631.76-2.535 6.47-.367-.202ZM128.775 156.78l-4.983-4.382 6.568-89.432 6.138 56.256-7.723 37.558ZM88.499 90.333l-3.196 33.619-19.789-8.43L88.5 90.333Zm-4.288 35.32-28.77 22.517 9.017-30.902 19.753 8.385ZM141.75 27.77l-4.543 79.266-6.075-55.704 6.381-15.04 4.237-8.522Zm-.821 49.76 3.119-54.462 3.443-11.187.548-1.397-7.11 67.046Zm-12.087-21.596-6.487 88.33-9.468-57.159 8.838-18.011 7.117-13.16Zm-11.811 99.421-71.08 46.529 8.98-14.99 11.706-18.375 50.394-13.163v-.001Zm-66.8 46.139 72.421-47.407 5.261 4.624-28.721 26.841-48.962 15.942Zm61.081-111.49 10.007 60.423-29.71-23.2 9.689-19.943 10.014-17.28Zm9.199 62.358-52.42 13.691 10.098-18.093 12.397-18.965 29.925 23.367ZM11.064 218.141l22.602-49.486 4.667 33.189-27.269 16.297Zm24.211-52.609 16.568-12.102-12.09 43.945-4.478-31.843Zm8.143 40.304 49.408-16.088-67.257 42.625 6.965-11.346 10.884-15.191Zm34.435-4.209-67.6 50.851 3.35-4.634 9.5-11.522 54.75-34.695Z" fill="#0CF"/></svg>