<svg width="500" height="316" fill="none" xmlns="http://www.w3.org/2000/svg"><path fill-rule="evenodd" clip-rule="evenodd" d="m118.721 8.438 47.744-6.232L264.162 0l84.757 3.244 32.105 7.376 42.871 21.348 75.66 60.616.445 15.847-100.271 83.541-104.375 87.583-46.143 36.391-49.839-38.322-66.693-56.508c-42.324-35.86-84.677-71.685-127.007-107.539-1.822-1.543-3.093-3.139-4.13-5.289C.705 106.548 0 104.345 0 102.404v-6.646c0-2.248.58-4.309 1.773-6.22.598-.956 1.5-2.068 2.344-2.832l64.03-45.33 50.575-32.938h-.001Zm378.998 90.385c-1.246 1.981-3.023 3.376-5.188 4.297-4.603 1.957-10.65 1.582-15.517.845v12.27c3.49-2.376 7.111-4.631 10.933-6.441 3.127-1.481 6.521-2.718 9.98-3.11l-.208-7.86ZM354.171 227.447l44.127-37.11 97.833-81.315c-2.528.539-4.983 1.493-7.31 2.595-4.282 2.028-8.316 4.628-12.186 7.335L354.171 227.447ZM4.814 109.814V98.87c-.935.02-1.924-.083-2.782-.472v4.006c0 1.642.629 3.543 1.338 5.014.404.839.885 1.649 1.444 2.396ZM5.4 96.816l48.644-42.983L5.343 88.31c-1.316 1.28-2.864 4.1-3.106 5.918-.092.686-.05 1.471.468 1.992.698.703 1.776.68 2.695.596Zm1.446 14.58a82.149 82.149 0 0 1 20.604 3.025c6.283 1.752 12.339 4.196 18.283 6.855v-12.719c-7.834.979-16.12.973-23.83-.839-5.409-1.272-10.957-3.567-15.057-7.392v11.07Zm40.918 10.351c11.967-.909 23.916-.85 35.86.363 12.829 1.304 25.494 3.841 38.024 6.83v-12.952c-13.484 1.753-27.55 1.886-41.078.563-11.015-1.078-22.592-3.241-32.806-7.596v12.792Zm75.915 7.331c15.609-1.879 31.37-2.423 47.078-1.845 16.671.614 33.287 2.496 49.704 5.422v-13.037c-15.861 1.896-31.846 2.97-47.825 2.471-16.491-.516-32.808-2.708-48.957-6.014v13.003Zm98.813 3.616c17.043-2.456 34.281-3.632 51.496-3.81 16.879-.174 34.051.418 50.783 2.736v-13.012a306.8 306.8 0 0 1-47.892 4.771c-18.198.369-36.408-.91-54.387-3.721v13.036Zm104.31-1.156c14.287-2.982 28.746-5.048 43.318-5.969 14.894-.942 29.826-.697 44.705.383v-12.941c-11.137 3.265-22.466 5.371-34.027 6.432-17.935 1.647-36.106.941-53.996-.923v13.018Zm90.055-5.874c9.438-2.919 19.032-5.367 28.804-6.892a149.39 149.39 0 0 1 29.321-1.663v-12.711c-8.059 3.876-16.293 6.624-25.149 8.029-10.887 1.726-22.04 1.426-32.976.344v12.893Zm56.593-6.594c-9.2-.298-18.384.275-27.479 1.694-10.024 1.564-19.859 4.118-29.53 7.147L302.802 270.253 473.45 119.071v-.001Zm-59.846 8.819c-14.426-1.008-28.919-1.22-43.357-.307-14.713.931-29.309 3.037-43.728 6.078l-59.777 145.319 146.862-151.09Zm-89.248 5.712c-16.592-2.288-33.615-2.875-50.351-2.702-17.129.177-34.281 1.351-51.239 3.796l41.219 145.659 60.371-146.753Zm-103.872 1.106c-16.447-2.949-33.096-4.844-49.8-5.459-15.436-.569-30.922-.042-46.264 1.776l68.811 102.666 30.845 45.995-3.592-144.978Zm-98.443-3.6c-12.725-3.057-25.59-5.667-38.624-6.991-11.4-1.158-22.81-1.254-34.236-.448L219.38 276.577l-27.901-41.881c-23.047-34.595-46.287-69.063-69.439-103.589h.001ZM8.661 113.465l125.141 105.989 48.83 41.351L46.16 123.677c-6.25-2.828-12.623-5.463-19.258-7.313a79.922 79.922 0 0 0-18.241-2.899Zm488.819-19.86-74.148-43.457 53.147 51.689c4.666.768 10.821 1.312 15.257-.574 3.393-1.442 5.159-4.105 5.744-7.658ZM7.257 97.876c3.877 4.175 9.639 6.591 15.108 7.876 7.637 1.795 15.873 1.754 23.624.739l20.62-61.06L7.257 97.876Zm41.879 9.469c9.881 4.109 21.015 6.161 31.633 7.2 13.573 1.328 27.73 1.18 41.25-.639l32.217-58.923-105.1 52.362Zm75.07 6.779c15.997 3.269 32.159 5.44 48.494 5.95 15.572.487 31.151-.536 46.611-2.354l-62.409-63.395-32.696 59.798v.001Zm99.756 3.722c17.483 2.667 35.191 3.877 52.877 3.519a304.688 304.688 0 0 0 47.631-4.751l-19.565-60.795-80.942 62.027h-.001Zm102.588-1.381c17.909 1.888 36.108 2.621 54.065.972 11.039-1.014 21.884-2.992 32.538-6.045L307.148 56.176l19.402 60.288Zm90.316-5.719c10.82 1.081 21.876 1.399 32.648-.309 8.723-1.384 16.821-4.101 24.752-7.93l-56.625-55.072-.775 63.311ZM123.628 9.831l20.708 6.782 90.738 3.866 100.128-2.262 40.295-6.803-26.868-6.17-84.496-3.222-97.513 2.192-42.992 5.617ZM75.755 38.826l65.142-21.215-21.664-7.093-43.478 28.308Zm304.588-26.184-18.616 3.143 49.135 25.265-30.519-28.408ZM487.178 85.24l-64.319-51.537-36.406-18.13 31.023 28.882 69.702 40.784ZM69.582 42.96l-21.09 62.451L155.41 52.143l-11.885-33.265L69.581 42.96Zm87.501 7.834 30.161-30.304-41.633-1.805 11.472 32.109Zm3.73-.883 69.343-27.56-40.178-1.742-29.164 29.301h-.001Zm78.735-27.454 65.611 30.449 27.921-32.627-93.532 2.178Zm100.045-2.936 65.807 20.91-46.997-24.085-18.81 3.175ZM415.635 45.8 335.65 20.383l-28.628 33.452 107.826 56.164.787-64.2Zm-112.143 8.556L235.03 22.584l-76.576 30.435 63.117 64.112 81.921-62.776ZM226.18 282.791l22.812 29.931 13.736-29.361-40.04-141.495 3.492 140.925Zm25.752 28.434 42.034-33.148 108.143-135.461-137.453 141.408-12.724 27.201Zm-8.189-2.031-19.254-25.316-151.51-136.116 127.773 128.385 42.991 33.047Z" fill="#FF69B4"/></svg>