<svg width="151" height="259" fill="none" xmlns="http://www.w3.org/2000/svg"><path fill-rule="evenodd" clip-rule="evenodd" d="M12.515 119.378.12 2.506 5.014.229 37.03 24.346l11.593 10.946 25.952 39.062 27.079 45.618 22.517 41.466 18.102 38.831 4.396 18.711 3.745 36.458-4.935 3.1-94.561-71.147L20.7 159.208l-8.184-39.83ZM31.88 68.805l-.373.18 8.27 17.123 1.756-.867-9.653-16.436Zm-1.3-1.622.394-.195L24.27 50.98l-1.823 1.075 8.132 15.128Zm22.588-21.388 9.12 21.276 25.803 48.262 29.551 49.083 17.629 25.62-12.906-27.7-22.489-41.383-27.03-45.519-19.678-29.639Zm87.142 155.131-17.672-25.636 18.453 40.402-.782-14.766h.001Zm-26.938-39.647-22.97-38.167 7.932 27.183 15.038 10.984Zm-30.846-52.052L62.387 71.554l-.12 15.471 20.258 22.202ZM56.528 58.765 47.002 36.56 33.69 25.857l22.838 32.908ZM6.366 3.886l1.118 6.2 5.139 9.699 13.4-.093L6.366 3.886Zm7.035 17.909 4.07 12.545 8.16 14.327 32.7 16.245-29.995-43.22-14.935.102Zm13.454 29.738 6.337 15.523L43.386 84.54l16.86 1.754.143-18.103-33.534-16.66ZM44.52 86.687l8.116 16.594 7.093-15.012-15.209-1.582Zm9.264 18.9 9.717 16.194-2.91-30.602-6.807 14.408Zm13.527 23.01 8.754 16.837 17.366 3.606-26.12-20.443Zm10.324 19.224 10.653 15.991 7.548-12.212-18.201-3.779Zm11.847 17.917 8.553 15.109-1.418-26.652-7.135 11.543Zm10.799 19.156 9.003 12.815-10.318-37.504 1.315 24.689Zm13.737 20.083 8.222 13.85 10.289 12.563 8.447-10.301-26.958-16.112Zm19.744 28.1 7.277 12.262 6.646 6.532-5.866-28.62-8.057 9.827v-.001Zm13.961 21.668-7.624-7.496-.548.349 6.244 8.358 1.928-1.211Zm-8.859-9.105-6.665-11.226-2.085 1.375 8.195 10.204.555-.353Zm-7.827-12.881-9.928-12.124-.581.331 8.407 13.18 2.102-1.387Zm-11.06-13.806-8.719-15.176-2.089 1.303 10.223 14.206.585-.333Zm-9.814-16.87-11.107-15.421-.596.436 9.599 16.298 2.104-1.313Zm-12.19-17.133-10-18.157-1.707.928 11.129 17.653.577-.423v-.001ZM86.91 165.072l-11.797-17.353-.066.045 10.178 18.224 1.685-.916Zm-12.835-19.091-9.662-19.222-2.249 1.15 11.843 18.118.068-.046ZM63.45 125.03l-10.843-18.196-.944.549 9.5 18.775 2.287-1.128Zm-11.808-19.97-9.15-18.04-1.767.872 9.98 17.714.938-.546ZM23.394 49.15l-7.268-13.076-.632.304 6.084 13.843 1.816-1.07Zm-8.088-14.923-3.889-11.98-2.073 1.083 5.32 11.207.642-.31Zm-4.665-13.854L6.105 11.81l-.392.217 2.897 9.409 2.031-1.062ZM5.395 9.896 4.124 2.868l-1.632.76 2.536 6.47.367-.202ZM22.27 156.783l4.983-4.382-6.569-89.432-6.138 56.256 7.724 37.558Zm40.276-66.447 3.196 33.619 19.788-8.43-22.984-25.189Zm4.288 35.32 28.769 22.517-9.016-30.902-19.753 8.385ZM9.295 27.773l4.543 79.266 6.075-55.705-6.381-15.04-4.237-8.521Zm.82 49.76L6.997 23.07 3.553 11.884l-.548-1.397 7.111 67.046Zm12.087-21.596 6.488 88.33 9.467-57.16-8.837-18.01-7.118-13.16Zm11.811 99.421 71.081 46.529-8.98-14.991-11.706-18.374-50.395-13.164Zm66.801 46.139L28.393 154.09l-5.26 4.624 28.72 26.841 48.961 15.942ZM39.732 90.007l-10.007 60.422 29.71-23.199-9.688-19.944-10.015-17.28Zm-9.199 62.358 52.422 13.691-10.099-18.094-12.397-18.965-29.926 23.368Zm109.448 65.778-22.603-49.485-4.666 33.188 27.269 16.298v-.001Zm-24.211-52.609-16.569-12.101 12.091 43.945 4.478-31.844Zm-8.143 40.304-49.408-16.087 67.257 42.625-6.965-11.346-10.884-15.192Zm-34.435-4.208 67.6 50.851-3.35-4.634-9.5-11.522-54.75-34.695Z" fill="#0CF"/></svg>